<mxfile host="app.diagrams.net" agent="Mozilla/5.0 (Macintosh; Intel Mac OS X 10_15_7) AppleWebKit/537.36 (KHTML, like Gecko) Chrome/138.0.0.0 Safari/537.36" version="28.0.6">
  <diagram name="第 1 页" id="LlaMEY4SNUwHneFNJt2C">
    <mxGraphModel dx="2052" dy="1112" grid="1" gridSize="10" guides="1" tooltips="1" connect="1" arrows="1" fold="1" page="1" pageScale="1" pageWidth="2000" pageHeight="1000" math="0" shadow="0">
      <root>
        <mxCell id="0" />
        <mxCell id="1" parent="0" />
        <mxCell id="PjjlK_6yJsVIA8HHfsVu-1" value="" style="rounded=1;whiteSpace=wrap;html=1;" vertex="1" parent="1">
          <mxGeometry x="540" y="460" width="200" height="140" as="geometry" />
        </mxCell>
        <mxCell id="PjjlK_6yJsVIA8HHfsVu-21" style="edgeStyle=entityRelationEdgeStyle;rounded=0;orthogonalLoop=1;jettySize=auto;html=1;exitX=1;exitY=0.5;exitDx=0;exitDy=0;entryX=0;entryY=0.5;entryDx=0;entryDy=0;" edge="1" parent="1" source="PjjlK_6yJsVIA8HHfsVu-2" target="PjjlK_6yJsVIA8HHfsVu-4">
          <mxGeometry relative="1" as="geometry" />
        </mxCell>
        <mxCell id="PjjlK_6yJsVIA8HHfsVu-24" style="edgeStyle=entityRelationEdgeStyle;rounded=0;orthogonalLoop=1;jettySize=auto;html=1;exitX=1;exitY=0.5;exitDx=0;exitDy=0;entryX=0;entryY=0.5;entryDx=0;entryDy=0;" edge="1" parent="1" source="PjjlK_6yJsVIA8HHfsVu-2" target="PjjlK_6yJsVIA8HHfsVu-3">
          <mxGeometry relative="1" as="geometry" />
        </mxCell>
        <mxCell id="PjjlK_6yJsVIA8HHfsVu-2" value="模型" style="rounded=1;whiteSpace=wrap;html=1;" vertex="1" parent="1">
          <mxGeometry x="560" y="510" width="40" height="40" as="geometry" />
        </mxCell>
        <mxCell id="PjjlK_6yJsVIA8HHfsVu-3" value="模型" style="rounded=1;whiteSpace=wrap;html=1;" vertex="1" parent="1">
          <mxGeometry x="680" y="540" width="40" height="40" as="geometry" />
        </mxCell>
        <mxCell id="PjjlK_6yJsVIA8HHfsVu-4" value="模型" style="rounded=1;whiteSpace=wrap;html=1;" vertex="1" parent="1">
          <mxGeometry x="680" y="480" width="40" height="40" as="geometry" />
        </mxCell>
        <mxCell id="PjjlK_6yJsVIA8HHfsVu-6" value="模型管理" style="text;html=1;align=center;verticalAlign=middle;resizable=0;points=[];autosize=1;strokeColor=none;fillColor=none;" vertex="1" parent="1">
          <mxGeometry x="460" y="515" width="70" height="30" as="geometry" />
        </mxCell>
        <mxCell id="PjjlK_6yJsVIA8HHfsVu-13" value="" style="rounded=1;whiteSpace=wrap;html=1;" vertex="1" parent="1">
          <mxGeometry x="540" y="350" width="200" height="80" as="geometry" />
        </mxCell>
        <mxCell id="PjjlK_6yJsVIA8HHfsVu-17" style="edgeStyle=orthogonalEdgeStyle;rounded=0;orthogonalLoop=1;jettySize=auto;html=1;exitX=0.5;exitY=1;exitDx=0;exitDy=0;dashed=1;" edge="1" parent="1" source="PjjlK_6yJsVIA8HHfsVu-14" target="PjjlK_6yJsVIA8HHfsVu-2">
          <mxGeometry relative="1" as="geometry" />
        </mxCell>
        <mxCell id="PjjlK_6yJsVIA8HHfsVu-14" value="模型&lt;div&gt;特征&lt;/div&gt;" style="rounded=1;whiteSpace=wrap;html=1;" vertex="1" parent="1">
          <mxGeometry x="560" y="370" width="40" height="40" as="geometry" />
        </mxCell>
        <mxCell id="PjjlK_6yJsVIA8HHfsVu-18" style="rounded=0;orthogonalLoop=1;jettySize=auto;html=1;exitX=0.5;exitY=1;exitDx=0;exitDy=0;entryX=0.5;entryY=0;entryDx=0;entryDy=0;edgeStyle=orthogonalEdgeStyle;curved=1;dashed=1;" edge="1" parent="1" source="PjjlK_6yJsVIA8HHfsVu-15" target="PjjlK_6yJsVIA8HHfsVu-2">
          <mxGeometry relative="1" as="geometry">
            <Array as="points">
              <mxPoint x="640" y="450" />
              <mxPoint x="580" y="450" />
            </Array>
          </mxGeometry>
        </mxCell>
        <mxCell id="PjjlK_6yJsVIA8HHfsVu-15" value="模型&lt;div&gt;特征&lt;/div&gt;" style="rounded=1;whiteSpace=wrap;html=1;" vertex="1" parent="1">
          <mxGeometry x="620" y="370" width="40" height="40" as="geometry" />
        </mxCell>
        <mxCell id="PjjlK_6yJsVIA8HHfsVu-19" style="edgeStyle=orthogonalEdgeStyle;rounded=0;orthogonalLoop=1;jettySize=auto;html=1;exitX=0.5;exitY=1;exitDx=0;exitDy=0;dashed=1;" edge="1" parent="1" source="PjjlK_6yJsVIA8HHfsVu-16" target="PjjlK_6yJsVIA8HHfsVu-4">
          <mxGeometry relative="1" as="geometry" />
        </mxCell>
        <mxCell id="PjjlK_6yJsVIA8HHfsVu-16" value="模型&lt;div&gt;特征&lt;/div&gt;" style="rounded=1;whiteSpace=wrap;html=1;" vertex="1" parent="1">
          <mxGeometry x="680" y="370" width="40" height="40" as="geometry" />
        </mxCell>
        <mxCell id="PjjlK_6yJsVIA8HHfsVu-20" value="模型特征管理" style="text;html=1;align=center;verticalAlign=middle;resizable=0;points=[];autosize=1;strokeColor=none;fillColor=none;" vertex="1" parent="1">
          <mxGeometry x="430" y="375" width="100" height="30" as="geometry" />
        </mxCell>
        <mxCell id="PjjlK_6yJsVIA8HHfsVu-26" value="" style="rounded=0;whiteSpace=wrap;html=1;" vertex="1" parent="1">
          <mxGeometry x="1030" y="260" width="610" height="350" as="geometry" />
        </mxCell>
        <mxCell id="PjjlK_6yJsVIA8HHfsVu-32" style="edgeStyle=entityRelationEdgeStyle;rounded=0;orthogonalLoop=1;jettySize=auto;html=1;exitX=1;exitY=0.5;exitDx=0;exitDy=0;entryX=0;entryY=0.5;entryDx=0;entryDy=0;fontColor=#FFFFFF;strokeColor=#000000;" edge="1" parent="1" source="PjjlK_6yJsVIA8HHfsVu-27" target="PjjlK_6yJsVIA8HHfsVu-28">
          <mxGeometry relative="1" as="geometry" />
        </mxCell>
        <mxCell id="PjjlK_6yJsVIA8HHfsVu-34" style="edgeStyle=entityRelationEdgeStyle;rounded=0;orthogonalLoop=1;jettySize=auto;html=1;exitX=1;exitY=0.5;exitDx=0;exitDy=0;entryX=0;entryY=0.5;entryDx=0;entryDy=0;fontColor=#FFFFFF;strokeColor=#000000;" edge="1" parent="1" source="PjjlK_6yJsVIA8HHfsVu-27" target="PjjlK_6yJsVIA8HHfsVu-29">
          <mxGeometry relative="1" as="geometry" />
        </mxCell>
        <mxCell id="PjjlK_6yJsVIA8HHfsVu-27" value="模型" style="rounded=1;whiteSpace=wrap;html=1;fillColor=light-dark(#9933FF,#212100);strokeColor=#000000;fontColor=#FFFFFF;" vertex="1" parent="1">
          <mxGeometry x="1120" y="425" width="40" height="40" as="geometry" />
        </mxCell>
        <mxCell id="PjjlK_6yJsVIA8HHfsVu-35" style="edgeStyle=entityRelationEdgeStyle;rounded=0;orthogonalLoop=1;jettySize=auto;html=1;exitX=1;exitY=0.5;exitDx=0;exitDy=0;entryX=0;entryY=0.5;entryDx=0;entryDy=0;fontColor=#FFFFFF;strokeColor=#000000;" edge="1" parent="1" source="PjjlK_6yJsVIA8HHfsVu-28" target="PjjlK_6yJsVIA8HHfsVu-30">
          <mxGeometry relative="1" as="geometry" />
        </mxCell>
        <mxCell id="PjjlK_6yJsVIA8HHfsVu-36" style="edgeStyle=entityRelationEdgeStyle;rounded=0;orthogonalLoop=1;jettySize=auto;html=1;exitX=1;exitY=0.5;exitDx=0;exitDy=0;entryX=0;entryY=0.5;entryDx=0;entryDy=0;fontColor=#FFFFFF;strokeColor=#000000;" edge="1" parent="1" source="PjjlK_6yJsVIA8HHfsVu-28" target="PjjlK_6yJsVIA8HHfsVu-31">
          <mxGeometry relative="1" as="geometry" />
        </mxCell>
        <mxCell id="PjjlK_6yJsVIA8HHfsVu-28" value="模型" style="rounded=1;whiteSpace=wrap;html=1;fillColor=light-dark(#9933FF,#212100);strokeColor=#000000;fontColor=#FFFFFF;" vertex="1" parent="1">
          <mxGeometry x="1260" y="375" width="40" height="40" as="geometry" />
        </mxCell>
        <mxCell id="PjjlK_6yJsVIA8HHfsVu-40" style="edgeStyle=orthogonalEdgeStyle;rounded=0;orthogonalLoop=1;jettySize=auto;html=1;exitX=1;exitY=0.5;exitDx=0;exitDy=0;fontColor=#FFFFFF;strokeColor=#000000;" edge="1" parent="1" source="PjjlK_6yJsVIA8HHfsVu-29" target="PjjlK_6yJsVIA8HHfsVu-39">
          <mxGeometry relative="1" as="geometry" />
        </mxCell>
        <mxCell id="PjjlK_6yJsVIA8HHfsVu-29" value="模型" style="rounded=1;whiteSpace=wrap;html=1;fillColor=light-dark(#9933FF,#212100);strokeColor=#000000;fontColor=#FFFFFF;" vertex="1" parent="1">
          <mxGeometry x="1260" y="485" width="40" height="40" as="geometry" />
        </mxCell>
        <mxCell id="PjjlK_6yJsVIA8HHfsVu-30" value="模型" style="rounded=1;whiteSpace=wrap;html=1;fillColor=light-dark(#9933FF,#212100);strokeColor=#000000;fontColor=#FFFFFF;" vertex="1" parent="1">
          <mxGeometry x="1390" y="330" width="40" height="40" as="geometry" />
        </mxCell>
        <mxCell id="PjjlK_6yJsVIA8HHfsVu-42" style="edgeStyle=entityRelationEdgeStyle;rounded=0;orthogonalLoop=1;jettySize=auto;html=1;exitX=1;exitY=0.5;exitDx=0;exitDy=0;entryX=0;entryY=0.5;entryDx=0;entryDy=0;" edge="1" parent="1" source="PjjlK_6yJsVIA8HHfsVu-31" target="PjjlK_6yJsVIA8HHfsVu-41">
          <mxGeometry relative="1" as="geometry" />
        </mxCell>
        <mxCell id="PjjlK_6yJsVIA8HHfsVu-31" value="模型" style="rounded=1;whiteSpace=wrap;html=1;fillColor=light-dark(#9933FF,#212100);strokeColor=#000000;fontColor=#FFFFFF;" vertex="1" parent="1">
          <mxGeometry x="1390" y="425" width="40" height="40" as="geometry" />
        </mxCell>
        <mxCell id="PjjlK_6yJsVIA8HHfsVu-43" style="edgeStyle=entityRelationEdgeStyle;rounded=0;orthogonalLoop=1;jettySize=auto;html=1;exitX=1;exitY=0.5;exitDx=0;exitDy=0;" edge="1" parent="1" source="PjjlK_6yJsVIA8HHfsVu-39" target="PjjlK_6yJsVIA8HHfsVu-41">
          <mxGeometry relative="1" as="geometry" />
        </mxCell>
        <mxCell id="PjjlK_6yJsVIA8HHfsVu-39" value="模型" style="rounded=1;whiteSpace=wrap;html=1;fillColor=light-dark(#9933FF,#212100);strokeColor=#000000;fontColor=#FFFFFF;" vertex="1" parent="1">
          <mxGeometry x="1390" y="485" width="40" height="40" as="geometry" />
        </mxCell>
        <mxCell id="PjjlK_6yJsVIA8HHfsVu-41" value="离线" style="rounded=1;whiteSpace=wrap;html=1;fillColor=#ffff88;strokeColor=#36393d;" vertex="1" parent="1">
          <mxGeometry x="1510" y="455" width="40" height="40" as="geometry" />
        </mxCell>
        <mxCell id="PjjlK_6yJsVIA8HHfsVu-46" style="edgeStyle=orthogonalEdgeStyle;rounded=0;orthogonalLoop=1;jettySize=auto;html=1;exitX=1;exitY=0.5;exitDx=0;exitDy=0;entryX=0;entryY=0.5;entryDx=0;entryDy=0;entryPerimeter=0;" edge="1" parent="1" source="PjjlK_6yJsVIA8HHfsVu-30">
          <mxGeometry relative="1" as="geometry">
            <mxPoint x="1510" y="350" as="targetPoint" />
          </mxGeometry>
        </mxCell>
        <mxCell id="PjjlK_6yJsVIA8HHfsVu-48" value="csv附件" style="text;html=1;align=center;verticalAlign=middle;resizable=0;points=[];autosize=1;strokeColor=none;fillColor=none;" vertex="1" parent="1">
          <mxGeometry x="1495" y="370" width="70" height="30" as="geometry" />
        </mxCell>
        <mxCell id="PjjlK_6yJsVIA8HHfsVu-50" value="" style="verticalLabelPosition=bottom;html=1;verticalAlign=top;align=center;strokeColor=none;fillColor=#00BEF2;shape=mxgraph.azure.file_2;pointerEvents=1;" vertex="1" parent="1">
          <mxGeometry x="1510" y="330" width="40" height="40" as="geometry" />
        </mxCell>
      </root>
    </mxGraphModel>
  </diagram>
</mxfile>
